<svg width="56" height="56" viewBox="0 0 56 56" fill="none" xmlns="http://www.w3.org/2000/svg">
    <circle cx="28" cy="28" r="28" fill="white"/>
    <g clip-path="url(#clip0_1171_31961)">
        <path d="M27.9995 18.3716C28.3446 18.3716 28.6245 18.0918 28.6245 17.7466V14.5629C28.6245 14.2178 28.3447 13.9379 27.9995 13.9379C27.6543 13.9379 27.3745 14.2177 27.3745 14.5629V17.7466C27.3746 18.0918 27.6544 18.3716 27.9995 18.3716Z" fill="black"/>
        <path d="M23.3006 19.3983C23.4194 19.5869 23.6224 19.6901 23.8299 19.6901C23.9438 19.6901 24.0591 19.659 24.1626 19.5938C24.4546 19.4098 24.5421 19.0239 24.3581 18.7318L22.6928 16.0896C22.5087 15.7976 22.1228 15.7101 21.8309 15.8941C21.5389 16.0781 21.4514 16.4641 21.6354 16.7561L23.3006 19.3983Z" fill="black"/>
        <path d="M31.839 19.594C31.9424 19.6591 32.0576 19.6901 32.1713 19.6901C32.379 19.6901 32.582 19.5867 32.7008 19.3981L34.3643 16.7559C34.5482 16.4638 34.4605 16.0779 34.1684 15.8939C33.8761 15.7101 33.4905 15.7979 33.3065 16.0899L31.643 18.7321C31.4591 19.0242 31.5469 19.4101 31.839 19.594Z" fill="black"/>
        <path d="M43.7985 28.652L42.7126 26.7336C42.5425 26.4331 42.1611 26.3275 41.8609 26.4976C41.5605 26.6676 41.4548 27.049 41.6249 27.3493L42.7103 29.2669C42.7647 29.3633 42.7506 29.4562 42.7373 29.503C42.7246 29.5481 42.6895 29.6313 42.5976 29.682L40.924 30.6091C40.7753 30.6912 40.5812 30.6393 40.5002 30.4963L40.075 29.7442C40.0732 29.7408 40.0712 29.7377 40.0694 29.7344L35.6738 21.9598C35.6195 21.8641 35.6332 21.7723 35.6462 21.7261C35.6588 21.6815 35.6937 21.5989 35.7855 21.5481L37.4612 20.6208C37.6117 20.5375 37.801 20.5881 37.8833 20.734L38.863 22.4648C39.033 22.7652 39.4145 22.8708 39.7147 22.7008C40.0152 22.5308 40.1208 22.1495 39.9508 21.8491L38.9716 20.119C38.554 19.3786 37.6051 19.1131 36.8562 19.527L35.1807 20.4543C34.8181 20.6546 34.5562 20.9858 34.4432 21.387C34.3365 21.7653 34.3747 22.1601 34.5492 22.5067L33.6262 22.7742C33.233 22.888 32.9944 22.9496 32.862 22.9496C32.8614 22.9496 32.8609 22.9496 32.8604 22.9496C32.7692 22.9493 32.6698 22.9145 32.386 22.807C32.2572 22.7583 32.0969 22.6975 31.8998 22.6288L30.2645 22.0571C29.3601 21.7412 28.9522 21.7582 28.3612 21.8121L25.5727 22.0617C24.3015 22.1743 23.491 22.4611 23.0437 22.9584L21.4545 22.498C21.6255 22.1529 21.6622 21.7618 21.5566 21.387C21.4436 20.9861 21.1818 20.655 20.8197 20.4546L19.145 19.5269C18.3955 19.1126 17.4461 19.3783 17.0284 20.1185L12.2032 28.6511C11.9966 29.0148 11.9455 29.4378 12.0593 29.8423C12.1725 30.2439 12.4343 30.5754 12.7962 30.7755L14.4708 31.7031C14.7103 31.8355 14.9704 31.8983 15.2271 31.8983C15.7724 31.8983 16.3025 31.6146 16.5875 31.1116L16.7644 30.7986C17.2473 31.0111 17.6527 31.32 17.929 31.6856C17.6592 32.001 17.4892 32.3901 17.4415 32.8135C17.3785 33.3733 17.5366 33.9225 17.8867 34.3603C18.2338 34.7944 18.7302 35.0683 19.2853 35.1328C19.2265 35.6878 19.3853 36.2317 19.7327 36.6646C20.0918 37.1136 20.5994 37.3756 21.1303 37.4374C21.0718 37.9916 21.23 38.535 21.5764 38.9682C21.9233 39.4032 22.4198 39.6776 22.9755 39.7421C22.9167 40.2976 23.0754 40.8418 23.4228 41.2748C23.837 41.7926 24.4483 42.0621 25.0655 42.0621C25.5263 42.0621 25.9903 41.9118 26.3777 41.6025L27.6863 40.5553C27.7902 40.4724 27.8847 40.3807 27.9696 40.282L28.7171 40.8791C29.1037 41.1876 29.5666 41.3375 30.0267 41.3374C30.6442 41.3373 31.2566 41.0675 31.6713 40.5492C31.8898 40.276 32.0282 39.9641 32.0907 39.6421C32.3093 39.7178 32.54 39.7568 32.7753 39.7568C32.8542 39.7568 32.9335 39.7524 33.0132 39.7436C33.5732 39.6814 34.0739 39.406 34.4218 38.9696C34.7699 38.536 34.9287 37.9922 34.87 37.4372C35.4005 37.3753 35.9083 37.1134 36.2685 36.6646C36.6273 36.216 36.7713 35.6638 36.7149 35.1326C37.2697 35.068 37.7658 34.7942 38.1121 34.3611C38.4625 33.9245 38.6213 33.3761 38.5592 32.8167C38.5121 32.3921 38.342 32.0016 38.0716 31.6853C38.3471 31.3198 38.7517 31.0106 39.2349 30.7982L39.4122 31.1118C39.697 31.6147 40.2268 31.8983 40.7723 31.8983C41.0291 31.8982 41.2895 31.8353 41.5292 31.7028L43.2028 30.7757C43.5646 30.5757 43.8263 30.2447 43.9399 29.8438C44.0544 29.4397 44.0043 29.0167 43.7985 28.652ZM15.4996 30.496C15.4183 30.6395 15.2242 30.6913 15.0761 30.6093L13.4015 29.6818C13.3101 29.6312 13.2752 29.5483 13.2625 29.5034C13.2494 29.4568 13.2355 29.3644 13.2906 29.2675L18.1166 20.7331C18.1718 20.6352 18.276 20.5803 18.3841 20.5803C18.4367 20.5803 18.4902 20.5933 18.5396 20.6206L20.2137 21.548C20.2139 21.5481 20.2141 21.5482 20.2143 21.5483C20.3059 21.599 20.3407 21.6815 20.3533 21.7262C20.3663 21.7724 20.3801 21.8641 20.3252 21.9609L15.4996 30.496ZM20.0605 33.7123C19.8842 33.8535 19.6617 33.9173 19.4342 33.892C19.2067 33.8667 19.0038 33.7558 18.863 33.5797C18.7218 33.4031 18.6582 33.1806 18.6837 32.9533C18.7092 32.7268 18.8201 32.525 18.9972 32.3841L21.3371 30.5137C21.7043 30.2205 22.2419 30.2808 22.5354 30.6474C22.6765 30.8238 22.7402 31.046 22.7147 31.2726C22.6893 31.4986 22.5783 31.7002 22.4022 31.8403C22.3983 31.8434 22.395 31.8468 22.3913 31.85L20.061 33.7118C20.0608 33.712 20.0607 33.7121 20.0605 33.7123ZM20.7082 35.8831C20.5672 35.7073 20.5034 35.4858 20.5286 35.2593C20.5538 35.0326 20.6648 34.8298 20.8412 34.6884L20.8414 34.6883C20.8415 34.6882 20.8417 34.6881 20.8418 34.688C20.8418 34.688 20.8418 34.688 20.8419 34.6879L24.2123 31.9951C24.5795 31.7019 25.1172 31.7618 25.4106 32.1288C25.5515 32.305 25.6152 32.5269 25.59 32.7535C25.5648 32.9804 25.4534 33.1831 25.2766 33.3244L21.9071 36.0161C21.5395 36.3095 21.002 36.2503 20.7082 35.8831ZM23.1243 38.5013C22.8968 38.476 22.6942 38.365 22.5532 38.1881C22.4122 38.012 22.3485 37.7901 22.3737 37.5635C22.399 37.3368 22.5102 37.1342 22.6867 36.993C22.6868 36.9928 22.687 36.9927 22.6872 36.9926L25.0195 35.1293C25.0223 35.1272 25.0253 35.1254 25.028 35.1232C25.3943 34.83 25.9318 34.8897 26.2255 35.2558C26.3667 35.4323 26.4304 35.6548 26.4048 35.8822C26.3793 36.1086 26.2684 36.3105 26.0913 36.4514L23.7515 38.3217C23.5747 38.4629 23.3519 38.5264 23.1243 38.5013ZM27.2192 39.0086C27.1939 39.2353 27.0828 39.4376 26.906 39.5789L25.5973 40.6262C25.2296 40.9196 24.6921 40.8606 24.3985 40.4933C24.2574 40.3176 24.1936 40.0959 24.2188 39.869C24.244 39.642 24.3549 39.4396 24.531 39.299C24.5312 39.2988 24.5314 39.2986 24.5316 39.2985L25.84 38.2526C25.8407 38.2521 25.8414 38.2516 25.8421 38.2511C26.2094 37.958 26.747 38.0181 27.0405 38.3848C27.181 38.5607 27.2446 38.7821 27.2192 39.0086ZM37.1366 33.5796C36.9957 33.7558 36.7928 33.8667 36.5653 33.892C36.338 33.9175 36.1153 33.8535 35.9391 33.7123C35.939 33.7122 35.9389 33.7121 35.9388 33.7121C35.9387 33.712 35.9386 33.712 35.9385 33.7119L34.2662 32.3757C33.9964 32.1602 33.6032 32.2042 33.3878 32.4738C33.1723 32.7435 33.2163 33.1368 33.4859 33.3522L35.1577 34.688C35.5245 34.9816 35.5849 35.5181 35.293 35.8831C34.9985 36.2501 34.461 36.3098 34.094 36.0158L32.2799 34.5682C32.0102 34.353 31.6169 34.3971 31.4016 34.6669C31.1863 34.9366 31.2305 35.3299 31.5003 35.5452L33.3135 36.9921C33.4902 37.1336 33.6013 37.3365 33.6266 37.5635C33.6518 37.79 33.588 38.0116 33.4458 38.1888C33.3052 38.365 33.1026 38.476 32.8752 38.5013C32.6475 38.5263 32.4247 38.4628 32.2485 38.3222L31.3459 37.6003C31.3443 37.5991 31.343 37.5978 31.3414 37.5965L30.5788 36.9868L30.4362 36.8728C30.1665 36.6572 29.7733 36.701 29.5578 36.9705C29.5308 37.0043 29.5079 37.0399 29.489 37.0769C29.3985 37.2538 29.4 37.4612 29.485 37.6351C29.5243 37.7157 29.5809 37.7893 29.6555 37.849L30.5631 38.5748C30.9274 38.869 30.987 39.4036 30.6953 39.7683C30.4017 40.1353 29.8641 40.1952 29.497 39.9024L28.4673 39.0798C28.5102 38.5448 28.3517 38.0231 28.0165 37.604C27.8081 37.3435 27.5497 37.1463 27.2658 37.014C27.4738 36.7254 27.6059 36.3864 27.6469 36.0219C27.7099 35.4621 27.5518 34.9129 27.201 34.4743C26.9926 34.2146 26.7345 34.0178 26.4512 33.8858C26.6596 33.5963 26.7917 33.2566 26.8323 32.8916C26.8945 32.3331 26.7362 31.785 26.3867 31.3479C25.7853 30.596 24.7683 30.3675 23.9219 30.7267C23.8542 30.4156 23.7157 30.1221 23.5113 29.8665C22.7877 28.9623 21.4626 28.8143 20.5569 29.537L18.8834 30.8746C18.505 30.3917 17.9905 29.9912 17.3823 29.7056L20.8247 23.6168L22.6576 24.1478C22.666 24.2459 22.6818 24.349 22.7084 24.4583C23.1521 26.2825 24.8317 27.1325 27.0919 26.6771C28.9963 26.2939 29.7803 26.8647 31.3417 28.0018C31.5037 28.1197 31.672 28.2423 31.8482 28.3685C32.9712 29.1741 34.1712 30.121 34.9757 30.7628L37.0045 32.3842C37.1807 32.5248 37.2917 32.7273 37.3168 32.9545C37.342 33.1814 37.2783 33.4031 37.1366 33.5796ZM37.1172 30.8743L35.7557 29.7862C34.94 29.1355 33.7231 28.1753 32.5765 27.3527C32.4028 27.2283 32.2371 27.1076 32.0776 26.9915C30.4585 25.8124 29.2883 24.9605 26.8453 25.4518C26.0975 25.6025 24.316 25.7787 23.9231 24.1632C23.8677 23.9351 23.924 23.8568 23.9479 23.8233C24.0315 23.7068 24.3677 23.4233 25.6833 23.3068L28.4747 23.057C28.9296 23.0155 29.1578 22.9946 29.852 23.2371L31.4875 23.8088C31.6693 23.8723 31.8147 23.9273 31.943 23.976C32.7305 24.2743 32.9392 24.2742 33.9738 23.9748L35.1795 23.6254L38.6173 29.706C38.0089 29.9914 37.495 30.3916 37.1172 30.8743Z" fill="black"/>
        <path d="M40.7856 25.2249C41.1308 25.2249 41.4106 24.9442 41.4106 24.599C41.4106 24.2538 41.1308 23.974 40.7856 23.974C40.4405 23.974 40.1606 24.2539 40.1606 24.599V24.6007C40.1606 24.9459 40.4405 25.2249 40.7856 25.2249Z" fill="black"/>
    </g>
    <defs>
        <clipPath id="clip0_1171_31961">
            <rect width="32" height="32" fill="white" transform="translate(12 12)"/>
        </clipPath>
    </defs>
</svg>
