<svg width="56" height="56" viewBox="0 0 56 56" fill="none" xmlns="http://www.w3.org/2000/svg">
    <circle cx="28" cy="28" r="28" fill="white"/>
        <path d="M43.9383 29.8368C43.651 26.9468 42.3599 24.2224 40.3027 22.1651C38.5447 20.4072 36.3929 19.2775 34.1288 18.7751V17.1871C35.0535 16.9571 35.7409 16.12 35.7409 15.125C35.7409 13.9533 34.7877 13 33.6159 13H29.1158C27.9441 13 26.9908 13.9533 26.9908 15.125C26.9908 16.1199 27.6782 16.957 28.6029 17.1871V18.7796C26.3457 19.284 24.201 20.4122 22.448 22.1652C22.0643 22.5488 21.7106 22.9513 21.3868 23.3695C21.3711 23.3683 21.3554 23.3672 21.3394 23.3672H16.8855C16.5404 23.3672 16.2605 23.647 16.2605 23.9922C16.2605 24.3374 16.5404 24.6172 16.8855 24.6172H20.5363C20.0781 25.3844 19.7086 26.1901 19.4273 27.0195H12.625C12.2799 27.0195 12 27.2993 12 27.6445C12 27.9897 12.2799 28.2695 12.625 28.2695H19.0741C18.894 29.0602 18.7906 29.8649 18.7639 30.6718H16.0001C15.6549 30.6718 15.3751 30.9516 15.3751 31.2968C15.3751 31.642 15.6549 31.9218 16.0001 31.9218H18.7839C18.8366 32.7309 18.9667 33.5356 19.1741 34.3242H15.125C14.7799 34.3242 14.5 34.604 14.5 34.9492C14.5 35.2944 14.7799 35.5742 15.125 35.5742H19.573C20.1861 37.1962 21.1443 38.7164 22.448 40.02C24.5071 42.0792 27.2344 43.3706 30.1273 43.6564C30.5402 43.6971 30.9534 43.7173 31.366 43.7173C33.805 43.7173 36.2129 43.0115 38.256 41.681C38.5453 41.4926 38.6271 41.1054 38.4387 40.8162C38.2503 40.5269 37.8631 40.4451 37.5739 40.6335C33.1015 43.5458 27.1119 42.9161 23.3319 39.1361C18.8967 34.7009 18.8967 27.4844 23.3319 23.0492C27.767 18.614 34.9835 18.614 39.4188 23.0492C43.1938 26.8242 43.8269 32.8087 40.9242 37.2789C40.7362 37.5684 40.8185 37.9556 41.1079 38.1435C41.3976 38.3315 41.7846 38.2492 41.9725 37.9597C43.5234 35.5712 44.2215 32.6865 43.9383 29.8368ZM28.2408 15.1251C28.2408 14.6426 28.6333 14.2501 29.1158 14.2501H33.6159C34.0984 14.2501 34.4909 14.6426 34.4909 15.1251C34.4909 15.6076 34.0984 16.0001 33.6159 16.0001H33.5038H29.2279H29.1158C28.6333 16.0001 28.2408 15.6075 28.2408 15.1251ZM29.8529 18.5647V17.2501H32.8788V18.5625C31.874 18.443 30.8575 18.4437 29.8529 18.5647Z" fill="black"/>
        <path d="M39.8613 38.9528C39.6963 38.9528 39.5357 39.0197 39.4195 39.1359C39.3026 39.2522 39.2363 39.4134 39.2363 39.5778C39.2363 39.7422 39.3026 39.9034 39.4195 40.0197C39.5357 40.1365 39.6964 40.2028 39.8613 40.2028C40.0257 40.2028 40.1863 40.1365 40.3032 40.0197C40.4195 39.9034 40.4863 39.7422 40.4863 39.5778C40.4863 39.4134 40.4195 39.2522 40.3032 39.1359C40.1863 39.0197 40.0256 38.9528 39.8613 38.9528Z" fill="black"/>
        <path d="M31.3754 21.3966C26.0292 21.3966 21.6797 25.746 21.6797 31.0923C21.6797 36.4385 26.0292 40.788 31.3754 40.788C36.7216 40.788 41.0711 36.4385 41.0711 31.0923C41.0711 25.746 36.7216 21.3966 31.3754 21.3966ZM31.3754 39.538C26.7184 39.538 22.9297 35.7492 22.9297 31.0923C22.9297 26.4353 26.7184 22.6466 31.3754 22.6466C36.0324 22.6466 39.8211 26.4353 39.8211 31.0923C39.8211 35.7492 36.0324 39.538 31.3754 39.538Z" fill="black"/>
        <path d="M35.3293 26.2552L32.2337 29.3508C31.9748 29.2228 31.6836 29.1505 31.3758 29.1505C31.0679 29.1505 30.7768 29.2228 30.5179 29.3508L29.1324 27.9654C28.8883 27.7213 28.4927 27.7213 28.2485 27.9654C28.0044 28.2094 28.0044 28.6052 28.2485 28.8493L29.6339 30.2347C29.5059 30.4936 29.4336 30.7848 29.4336 31.0926C29.4336 32.1635 30.3048 33.0348 31.3758 33.0348C32.4467 33.0348 33.3179 32.1635 33.3179 31.0926C33.3179 30.7848 33.2456 30.4936 33.1176 30.2347L36.1224 27.2299L36.2132 27.1391C36.4573 26.895 36.4573 26.4993 36.2132 26.2552C35.9691 26.0112 35.5735 26.0112 35.3293 26.2552ZM31.3758 31.7848C30.9941 31.7848 30.6836 31.4743 30.6836 31.0927C30.6836 30.711 30.9941 30.4005 31.3758 30.4005C31.7574 30.4005 32.0679 30.711 32.0679 31.0927C32.0679 31.4743 31.7574 31.7848 31.3758 31.7848Z" fill="black"/>
        <path d="M38.0581 30.475H37.479C37.1339 30.475 36.854 30.7548 36.854 31.1C36.854 31.4452 37.1339 31.725 37.479 31.725H38.0581C38.4032 31.725 38.6831 31.4452 38.6831 31.1C38.6831 30.7548 38.4032 30.475 38.0581 30.475Z" fill="black"/>
        <path d="M25.2719 30.4597H24.6929C24.3477 30.4597 24.0679 30.7395 24.0679 31.0847C24.0679 31.4299 24.3477 31.7097 24.6929 31.7097H25.2719C25.617 31.7097 25.8969 31.4299 25.8969 31.0847C25.8969 30.7395 25.617 30.4597 25.2719 30.4597Z" fill="black"/>
        <path d="M31.3823 25.614C31.7274 25.614 32.0073 25.3342 32.0073 24.989V24.41C32.0073 24.0648 31.7274 23.785 31.3823 23.785C31.0372 23.785 30.7573 24.0648 30.7573 24.41V24.989C30.7573 25.3342 31.0372 25.614 31.3823 25.614Z" fill="black"/>
        <path d="M31.3677 36.5712C31.0226 36.5712 30.7427 36.851 30.7427 37.1962V37.7752C30.7427 38.1204 31.0226 38.4002 31.3677 38.4002C31.7128 38.4002 31.9927 38.1204 31.9927 37.7752V37.1962C31.9927 36.851 31.7128 36.5712 31.3677 36.5712Z" fill="black"/>
        <path d="M12.625 34.3237C12.4606 34.3237 12.2994 34.3906 12.1831 34.5069C12.0669 34.6231 12 34.7844 12 34.9487C12 35.1137 12.0668 35.2744 12.1831 35.3906C12.2994 35.5069 12.4606 35.5737 12.625 35.5737C12.7894 35.5737 12.9506 35.5069 13.0668 35.3906C13.1831 35.2744 13.25 35.1131 13.25 34.9487C13.25 34.7844 13.1831 34.6231 13.0668 34.5069C12.9506 34.3906 12.7894 34.3237 12.625 34.3237Z" fill="black"/>
</svg>
