<svg width="56" height="56" viewBox="0 0 56 56" fill="none" xmlns="http://www.w3.org/2000/svg">
    <circle cx="28" cy="28" r="28" fill="white"/>
        <g clip-path="url(#clip0_1171_31975)">
            <path d="M22.9902 18.8677C23.3361 18.8677 23.6165 18.5876 23.6165 18.2427C23.6165 17.897 23.3361 17.6177 22.9902 17.6177C22.6446 17.6177 22.3643 17.897 22.3643 18.2427C22.3643 18.5876 22.6446 18.8677 22.9902 18.8677Z" fill="black"/>
            <path d="M39.6459 23.3399C40.1043 22.5379 39.9265 21.5227 39.2229 20.9255L37.1021 19.1282C36.9847 19.0286 36.9049 18.8884 36.8775 18.7339L36.3974 16.0181C36.2369 15.1025 35.4502 14.4385 34.5268 14.4385H31.7584C31.6082 14.4385 31.4614 14.3843 31.3501 14.29L29.2293 12.4543C29.2276 12.4529 29.2256 12.4514 29.2239 12.4497C28.515 11.8501 27.4859 11.8501 26.7772 12.4497C26.7753 12.4514 26.7736 12.4529 26.7719 12.4543L24.6557 14.2859C24.5397 14.3843 24.3932 14.4385 24.2432 14.4385H21.4742C20.551 14.4385 19.7643 15.1028 19.6038 16.0171L19.1226 18.7354C19.0957 18.8892 19.0165 19.0286 18.8991 19.1279L16.7777 20.9258C16.0745 21.5227 15.8969 22.5379 16.3553 23.3396L17.7398 25.7622C17.8174 25.898 17.8453 26.0574 17.8183 26.2114L17.3374 28.9658C17.1782 29.8797 17.6909 30.7737 18.5561 31.0913L21.1579 32.0484C21.2097 32.0674 21.2587 32.093 21.3034 32.1245L16.4805 40.5655C16.2056 41.0467 16.65 41.6221 17.1865 41.4788L20.0033 40.7256L20.7579 43.5367C20.902 44.0735 21.6285 44.1714 21.9067 43.6846L26.8839 34.9744L27.7814 34.6443C27.9226 34.5923 28.0784 34.5926 28.2193 34.6441L29.1845 34.9991L34.525 43.7015C34.8117 44.1683 35.5216 44.0677 35.664 43.5367L36.4189 40.7256L39.2354 41.4788C39.7795 41.6248 40.2269 41.0298 39.9316 40.5486L34.743 32.0955C34.775 32.0767 34.8086 32.0608 34.8435 32.0481L37.4443 31.0913C38.3113 30.7735 38.824 29.8792 38.6637 28.9656L38.1828 26.2112C38.1559 26.0574 38.1838 25.8977 38.2613 25.762L39.6459 23.3399ZM21.5735 41.7449L21.051 39.7984C20.9614 39.4649 20.618 39.2671 20.2839 39.3565L18.3117 39.8838L22.0605 33.3223L22.8815 34.7583C23.322 35.5301 24.2234 35.8875 25.062 35.6397L21.5735 41.7449ZM38.0439 39.8662L36.1381 39.3565C35.8037 39.2671 35.4605 39.4651 35.3709 39.7984L34.8316 41.8079L31.0666 35.6731C31.2026 35.7032 31.3394 35.718 31.4751 35.718C32.1386 35.7178 32.7724 35.3667 33.1195 34.7586L33.9822 33.2491L38.0439 39.8662ZM37.1735 25.1428C36.9519 25.5305 36.8722 25.9863 36.949 26.426L37.4299 29.1807C37.4859 29.4988 37.31 29.8091 37.0118 29.9185L34.4111 30.875C34.0214 31.0181 33.6897 31.2881 33.4661 31.6385C33.4404 31.6717 33.4186 31.7073 33.4005 31.7447L32.0317 34.1397C31.8746 34.4146 31.5476 34.5357 31.2543 34.4283C31.1721 34.398 28.7183 33.4956 28.6518 33.4712C28.232 33.3174 27.7694 33.3172 27.3489 33.4715C27.2985 33.4895 26.1887 33.898 24.7474 34.4283C24.4536 34.5362 24.1266 34.4146 23.9695 34.1394L22.6814 31.886C22.6518 31.7683 22.5884 31.6592 22.495 31.5745C22.2726 31.2549 21.9566 31.0095 21.5906 30.8753L18.9891 29.9182C18.6916 29.8091 18.5158 29.4986 18.5713 29.1802L19.0522 26.426C19.1293 25.9863 19.0495 25.5305 18.8279 25.1428L17.4433 22.7202C17.2829 22.4402 17.3445 22.086 17.5889 21.8784L19.71 20.0808C20.05 19.7925 20.2797 19.3909 20.3565 18.9514L20.8374 16.2336C20.893 15.9177 21.1608 15.6882 21.4744 15.6882H24.2435C24.6902 15.6882 25.1246 15.5286 25.4715 15.2341L27.5894 13.4014C27.8281 13.2012 28.1733 13.2012 28.412 13.4014L30.5346 15.2383C30.8766 15.5286 31.3113 15.6882 31.7584 15.6882H34.527C34.8406 15.6882 35.1085 15.9177 35.164 16.2344L35.6444 18.9512C35.7222 19.3919 35.9519 19.793 36.2914 20.0808L38.412 21.8779C38.6569 22.0857 38.7183 22.44 38.5581 22.7202L37.1735 25.1428Z" fill="black"/>
            <path d="M28 15.7341C26.922 15.7341 25.8741 15.9414 24.8853 16.3503C24.5658 16.4824 24.4142 16.8481 24.5465 17.167C24.6791 17.4858 25.0455 17.637 25.3648 17.5051C26.2006 17.1592 27.0874 16.9839 28 16.9839C31.7982 16.9839 34.8882 20.0679 34.8882 23.8587C34.8882 27.6494 31.7982 30.7334 28 30.7334C24.2018 30.7334 21.1118 27.6494 21.1118 23.8587C21.1118 22.6829 21.4144 21.5222 21.9868 20.5024C22.1559 20.2014 22.0482 19.8203 21.7466 19.6516C21.4447 19.4829 21.0631 19.5903 20.8941 19.8914C20.2173 21.0974 19.8594 22.4692 19.8594 23.8589C19.8594 28.3389 23.5113 31.9837 28 31.9837C32.4888 31.9837 36.1407 28.3389 36.1407 23.8589C36.1407 19.3787 32.4888 15.7341 28 15.7341Z" fill="black"/>
            <path d="M25.5408 24.6651L25.1744 26.7954C25.134 27.0298 25.2307 27.2669 25.4237 27.4068C25.6142 27.5452 25.8696 27.5662 26.0829 27.4544L28.0002 26.4485L29.9175 27.4544C30.1284 27.565 30.384 27.5467 30.577 27.4068C30.7698 27.2669 30.8664 27.0301 30.826 26.7954L30.4596 24.6651L32.0105 23.1563C32.1812 22.9903 32.2426 22.742 32.169 22.5156C32.0951 22.2893 31.8992 22.1245 31.6634 22.0901L29.52 21.7793L28.5619 19.8411C28.4562 19.6277 28.2385 19.4924 28.0002 19.4924C27.7617 19.4924 27.544 19.6277 27.4386 19.8411L26.4804 21.7793L24.3371 22.0901C24.101 22.1245 23.9051 22.2893 23.8314 22.5156C23.7578 22.742 23.8192 22.9903 23.9899 23.1563L25.5408 24.6651ZM26.9863 22.969C27.1903 22.9395 27.3667 22.8115 27.4579 22.6272L28.0002 21.53L28.5428 22.6272C28.6338 22.8115 28.8101 22.9395 29.0142 22.969L30.2277 23.145L29.3495 23.9993C29.202 24.1428 29.1348 24.3496 29.1695 24.5525L29.3769 25.7586L28.2916 25.1892C28.2003 25.1414 28.1003 25.1175 28.0002 25.1175C27.9002 25.1175 27.8001 25.1414 27.7089 25.1892L26.6235 25.7586L26.8309 24.5525C26.8659 24.3499 26.7984 24.1428 26.6509 23.9993L25.7727 23.145L26.9863 22.969Z" fill="black"/>
        </g>
        <defs>
            <clipPath id="clip0_1171_31975">
            <rect width="32" height="32" fill="white" transform="translate(12 12)"/>
            </clipPath>
        </defs>
</svg>
