<svg width="56" height="56" viewBox="0 0 56 56" fill="none" xmlns="http://www.w3.org/2000/svg">
    <circle cx="28" cy="28" r="28" fill="white"/>
        <path d="M39.9465 27.6248C40.0579 27.7077 40.1889 27.7483 40.3194 27.7483C40.4805 27.7483 40.6408 27.6862 40.7619 27.5648L43.8174 24.5032C43.9456 24.3747 44.0116 24.1969 43.9983 24.0158C43.985 23.8348 43.8937 23.6685 43.7481 23.5602L40.6249 21.2371V15C40.6249 14.6548 40.3451 14.375 39.9999 14.375H36C35.6548 14.375 35.375 14.6548 35.375 15V17.3319L28.373 12.1236C28.1516 11.9588 27.8484 11.9588 27.6269 12.1236L22.1541 16.1946C21.8772 16.4006 21.8196 16.7921 22.0257 17.0691C22.2317 17.3461 22.6233 17.4036 22.9002 17.1975L28 13.404L42.422 24.1318L40.2589 26.2993L28.373 17.458C28.1516 17.2932 27.8484 17.2932 27.6269 17.458L15.7411 26.2993L13.578 24.1318L19.1826 19.9629C19.4595 19.7569 19.5171 19.3653 19.311 19.0884C19.1049 18.8114 18.7134 18.7539 18.4365 18.9599L12.2519 23.5602C12.1063 23.6685 12.015 23.8348 12.0017 24.0158C11.9883 24.1968 12.0544 24.3747 12.1826 24.5032L15.2381 27.5648C15.4573 27.7845 15.8044 27.81 16.0535 27.6248L16.5 27.2926V32.25H13.25C12.5608 32.25 12 32.8107 12 33.5V42.7499C12 43.4392 12.5608 43.9999 13.25 43.9999H17.5C18.1243 43.9999 18.6417 43.5394 18.7339 42.9405L21.6407 43.9644C21.7074 43.9879 21.7776 43.9999 21.8483 43.9999H30.7728C31.8053 43.9999 32.808 43.6326 33.5961 42.9656L40.3567 37.2442C40.8923 36.7909 41.2096 36.1556 41.2499 35.4551C41.2904 34.7546 41.0484 34.0869 40.5686 33.575C40.2652 33.2514 39.8957 33.0251 39.5 32.8973V27.2926L39.9465 27.6248ZM39.375 20.3073L36.625 18.2617V15.625H39.375V20.3073ZM17.5 42.7499H13.25V33.5H14.75V38.1249C14.75 38.4701 15.0299 38.7499 15.375 38.7499C15.7201 38.7499 16 38.4701 16 38.1249V33.5H17.5V33.9991C17.5 33.9994 17.5 33.9996 17.5 33.9999C17.5 34.0003 17.5 34.0005 17.5 34.0008L17.5007 42.0351C17.5 42.0496 17.5004 42.0639 17.5007 42.0782L17.5008 42.7499C17.5008 42.7499 17.5006 42.7499 17.5 42.7499ZM39.6565 34.4298C39.8998 34.6893 40.0224 35.0278 40.002 35.3829C39.9815 35.7381 39.8207 36.0602 39.5491 36.29L32.7885 42.0114C32.2258 42.4877 31.51 42.7499 30.7727 42.7499H21.9552L18.75 41.6209V34.6249H23.3347C23.9528 34.6249 24.5513 34.8061 25.0655 35.149L29.2467 37.9364C29.4333 38.0609 29.5578 38.251 29.5971 38.4719C29.6364 38.6927 29.5853 38.9142 29.453 39.0954C29.2218 39.4122 28.797 39.5197 28.4431 39.3504L24.866 37.6418C24.5544 37.493 24.1814 37.6249 24.0327 37.9364C23.8839 38.2478 24.0157 38.6209 24.3272 38.7697L27.9043 40.4783C28.1895 40.6146 28.4929 40.68 28.793 40.68C29.4359 40.68 30.0633 40.3794 30.4628 39.8321C30.7977 39.3731 30.9273 38.8122 30.8278 38.2527C30.7282 37.6933 30.4129 37.2116 29.9401 36.8963L25.7589 34.1089C25.0387 33.6288 24.2004 33.375 23.3347 33.375H18.7437C18.6891 32.8276 18.2801 32.3832 17.7501 32.2751V26.3628L28 18.7384L38.25 26.3628V32.8176C37.8344 32.8955 37.433 33.0778 37.0875 33.3681L32.1123 37.5501C31.848 37.7722 31.8139 38.1664 32.036 38.4307C32.2582 38.6949 32.6523 38.729 32.9166 38.5069L37.8918 34.3249C38.4145 33.8856 39.1897 33.9317 39.6565 34.4298Z" fill="black"/>
        <path d="M21.1654 17.5956C21.0493 17.4794 20.888 17.4125 20.7236 17.4125C20.5586 17.4125 20.3973 17.4794 20.2811 17.5956C20.1649 17.7118 20.0986 17.8731 20.0986 18.0375C20.0986 18.2018 20.1649 18.3631 20.2811 18.4793C20.398 18.5956 20.5586 18.6625 20.7236 18.6625C20.888 18.6625 21.0486 18.5956 21.1654 18.4793C21.2817 18.3631 21.3486 18.2018 21.3486 18.0375C21.3486 17.8731 21.2818 17.7118 21.1654 17.5956Z" fill="black"/>
        <path d="M15.8481 40.1518C15.7319 40.0356 15.5706 39.9687 15.4062 39.9687C15.2419 39.9687 15.0806 40.0356 14.9644 40.1518C14.8475 40.2681 14.7812 40.4293 14.7812 40.5937C14.7812 40.7581 14.8475 40.9193 14.9644 41.0356C15.0806 41.1518 15.2419 41.2187 15.4062 41.2187C15.5706 41.2187 15.7319 41.1518 15.8481 41.0356C15.9643 40.9193 16.0312 40.7581 16.0312 40.5937C16.0312 40.4293 15.9644 40.2681 15.8481 40.1518Z" fill="black"/>
        <path d="M24.8604 25.1736C24.5149 25.1643 24.2345 25.4369 24.2344 25.7826L24.2283 34.2538C24.2281 34.5994 24.5079 34.8872 24.8535 34.8964C24.9651 34.8994 25.0698 34.873 25.1606 34.8242C25.3508 34.7219 25.4793 34.5213 25.4795 34.2873L25.4855 25.8161C25.4858 25.4705 25.2059 25.1828 24.8604 25.1736Z" fill="black"/>
        <path d="M30.9556 25.173C30.6101 25.1636 30.3298 25.4363 30.3296 25.782L30.3235 34.2532C30.3233 34.5988 30.6031 34.8865 30.9487 34.8958C31.0603 34.8987 31.165 34.8724 31.2558 34.8235C31.446 34.7213 31.5745 34.5207 31.5747 34.2867L31.5807 25.8155C31.581 25.4699 31.3011 25.1822 30.9556 25.173Z" fill="black"/>
        <path d="M22.8931 25.4892C22.8929 25.8396 23.1726 26.1311 23.5179 26.1403L31.9787 26.3667C32.3238 26.3759 32.6038 26.0994 32.6039 25.749C32.6039 25.6358 32.5748 25.5288 32.5237 25.4354C32.4165 25.2397 32.2128 25.1041 31.9791 25.0978L23.5183 24.8715C23.1731 24.8623 22.8932 25.1388 22.8931 25.4892Z" fill="black"/>
</svg>
